<svg xmlns="http://www.w3.org/2000/svg" viewBox="0 0 512 512" width="48" height="48"><path fill="#3AB37C" d="M424.3 180c-1-1.2-1.5-2.8-1.5-4.3-14.8-26.1-15.7-58-30.5-84.1-41.7 23.4-70.2 65.1-97.4 103.1-16.4 22.9-31.1 46.4-44.6 71.1-13.6 24.8-26.8 49.9-42 73.8-2.2 3.4-7.9 5-10.3.7-7.2-13.3-15.3-26.2-24.6-38.2-8-10.3-17.1-19.5-25.3-29.6-12.7-15.7-26.3-34.5-43.9-45.4-6.4 21-13.9 41.8-17.2 63.6 24.6 15.9 43.4 38.9 61.5 61.6 21.2 26.6 43.1 52 66.9 76.3 15.4-20.1 26-43.5 38.8-65.3 15.1-25.7 32.7-49.4 51.4-72.6 18.7-23.2 40.3-43.7 62-63.9 10.2-9.5 22.2-17.3 33.1-26 8.2-6.6 16.2-13.4 23.7-20.7 0 .1 0 0-.1-.1z"/><path d="M436.2 170.3h-2.8c-16.3-27.7-16.2-62.6-34-89.9-1.9-3-5.4-3.1-8.3-1.6-45.6 23.1-76.2 67.7-105.2 108.1-16.6 23.2-31.6 47-45.4 72-12.3 22.3-24.1 44.8-37.4 66.6-6-10.4-12.6-20.4-19.9-29.9-8.2-10.8-17.8-20.3-26.3-30.8-15.2-18.7-31.4-40.9-53.7-51.5-3.7-1.8-7.4.5-8.5 4.2-6.8 23.7-15.8 47-19.5 71.4v.4c-2 2.7-2.2 7.1 1.6 9.4 26.5 15.6 46 40.8 64.9 64.6 22 27.7 45.2 54.1 70.2 79.1 2.3 2.3 6.4 1.8 8.4-.5 17.2-20.6 28.7-45 41.8-68.2 14.7-25.9 32-50.3 51.1-73.2 19.2-22.9 40-43.7 61.9-64 10.4-9.7 22.6-17.7 33.8-26.6 9-7.2 17.7-14.7 25.9-22.8 2.3-.5 4.2-2.1 4.6-4.7.6-.6 1.2-1.3 1.8-1.9 3.8-4.4 0-10.2-5-10.2zM400.7 201c-10.9 8.7-22.8 16.5-33.1 26-21.8 20.2-43.4 40.7-62 63.9-18.7 23.2-36.3 46.8-51.4 72.6-12.8 21.8-23.4 45.2-38.8 65.3-23.8-24.2-45.8-49.7-66.9-76.3-18.1-22.7-37-45.8-61.5-61.6 3.3-21.8 10.8-42.6 17.2-63.6 17.7 10.9 31.2 29.7 43.9 45.4 8.2 10.1 17.3 19.3 25.3 29.6 9.3 12 17.4 24.9 24.6 38.2 2.4 4.4 8.1 2.7 10.3-.7 15.3-23.9 28.4-49 42-73.8 13.5-24.7 28.2-48.2 44.6-71.1 27.2-38 55.8-79.8 97.4-103.1 14.8 26.1 15.7 58 30.5 84.1 0 1.5.5 3.1 1.5 4.3 0 .1.1.2.1.2-7.5 7.2-15.5 14-23.7 20.6z"/></svg>