<svg version="1.1" id="Layer_1" xmlns="http://www.w3.org/2000/svg" xmlns:xlink="http://www.w3.org/1999/xlink" x="0px" y="0px" width="190px" height="70px" viewBox="0 0 190 70" style="enable-background:new 0 0 190 70;" xml:space="preserve">
<style type="text/css">
	.st0a{fill:#613D19;}
	.st1a{fill:#F5821F;}
	.st2a{fill:#528A36;}
	.st3a{fill:#558F45;}
</style>
<g>
	<g>
		<g>
			<path class="st0a" d="M41.9,48.2c-0.4,0.4-1.4,1.1-2,1.5c-1.1,0.8-2.5,1.7-2.5,1.5c-0.1-0.2,2-1.9,3.3-2.9c1.2-0.9,2-1.7,2.8-2.6
				c0.9-1,2.2-3.4,0.8-3.6c-1.2-0.2-1.3,1.2-2.5,2.6c-0.6,0.6-1.8,1.8-2.8,2.5c-1.2,1-3,2.3-3,2.1c0-0.3,2.8-2.4,3.7-3.4
				s1.5-1.8,2.3-3.3c1.4-2.3-0.1-3.4-0.9-2.6c-0.9,0.8-1.1,1.9-1.7,2.6c-0.2,0.3-1.1,1.4-2.1,2.4c-1.3,1.3-3.2,2.8-3.3,2.8
				c-0.1-0.1,1.3-1.4,2.1-2.3c0.5-0.6,1.2-1.5,1.6-2.3c0.4-0.8,0.5-2,0.1-2.5c-0.1-0.2-0.4-0.2-0.7-0.1c-0.5,0.4-0.7,0.9-1,1.5
				c-0.1,0.4-0.7,1.1-0.9,1.4c-1.3,1.6-2.9,3.2-3.3,3.5c-0.6,0.5-3,2.7-4.6,3.3c-1.7,0.6-3,0.1-3,0.1s-0.4-0.1-3-1.9
				c-2.8-1.8-4.4,0.1-4.4,0.1l2,1.7c0,0,2.8,2.1,3.8,4.2c1,2,2.1,2.8,2.8,4c0.1,0.1,0.1,1.3,0.1,1.5c-0.1,2.3-1,5.3-1.2,6.6
				c-3.7,1.2-8.1,3.6-7,3.6c1.1-0.1,24.2-0.3,25.2-0.3c0.9,0-3.8-3-7.7-3.4c-0.2-0.9-1.7-8.2-1.7-8.2c0.1,0,0.1-0.4,0.7-1.4
				c0.7-0.9,3.4-3.1,3.4-3.1s1.9-0.9,3.5-2.1c0.9-0.6,1.7-1.5,2.2-1.8c1.3-0.9,1.7-2.1,1.5-2.8C43.9,46.3,43,47.2,41.9,48.2z"></path>
			<g>
				<path class="st1a" d="M27.3,34.7C26,34.1,25,34,24.4,34.3c-0.1,0.1-0.4,0.6-0.6,0.7c0,0.1-0.2,0.4-0.4,0.8
					c-0.9-0.3-2.9-0.9-3.7-1.3c-1.2-0.5-3.3-1.4-4.6-2c0.1-0.5,0-1-0.4-1.3c-0.1-0.1-0.9-0.7-1.1-0.4c-0.1,0.3-1.2,2.1-1.3,2.3
					s0.9,0.9,2,0.4c0.1-0.1,0.2-0.1,0.3-0.2c1,0.4,3.8,1.5,4.6,1.8c0.6,0.3,3.2,1.2,3.9,1.5C23,37,23,37.7,23,37.7
					c0,0.1-0.1,0.4,0,0.6c0.4,0.9,2,0.9,2.9,1.1c1,0.2,1.9,0.4,2.3,0.3c0.1,0,0.7,0.1,0.7-0.1c0-0.3-0.7-0.5-1.9-0.7
					c-1-0.1-2.9-0.4-3.2-0.8c0,0,0.1-0.4,0.1-0.7c0.5,0.1,1.7,0.5,2.1,0.6c0.6,0.1,1.4,0.3,2.1,0.4c0.7,0.1,0.5-0.3,0.1-0.4
					c-0.4-0.1-2.3-0.5-2.7-0.7c-0.3-0.1-1.1-0.4-1.5-0.5l0.1-0.5c0.5,0.1,1.9,0.4,2.8,0.6c1.2,0.3,1.6,0.1,1.7,0s-1.1-0.5-1.7-0.6
					c-0.5-0.1-1.9-0.5-2.5-0.7c0.1-0.2,0.2-0.5,0.3-0.6c0.1-0.1,1.2,0.1,2.3,0.6c1,0.4,1.7,0.7,1.9,0.4
					C29.3,35.6,28.6,35.2,27.3,34.7z M12.9,33.1c0.1-0.2,0.8-1.5,0.9-1.7c0.1-0.3,1,0.4,0.7,1.3C14.2,33.6,12.8,33.2,12.9,33.1z"></path>
				<g id="AnpV0A_21_">
					<g>
						<path class="st1a" d="M0.5,21.4c-0.1-0.1-0.1-0.1-0.2,0.1c0,0.1-0.1,0.1-0.1,0.1C0.1,21.7,0,21.8,0,22c0,0,0,0,0,0.1
							c0.1,0.1,0.1,0.1,0,0.3c0,0,0,0.2,0.1,0.1c0.2-0.1,0.2-0.1,0.2,0.1c0,0.1-0.1,0.1-0.1,0.2c-0.1,0.3,0,0.4,0.2,0.7l0.1,0.1
							c0.1,0,0.1,0.1,0.1,0.1c-0.1,0.2-0.2,0.4-0.4,0.7S0,24.8,0.1,25.1c0,0.4,0.1,0.9,0.3,1.2c0.1,0.2,0.2,0.4,0.4,0.5
							C1,27,1.3,27.2,1.5,27.3c0.4,0.2,0.5,0.5,0.6,0.9c0,0.1,0,0.1,0.1,0.3v0.1c0.1,0.1,0.1,0.1,0.1,0.2c-0.1,0.3-0.2,0.5-0.5,0.7
							c-0.1,0.1-0.2,0.1-0.3,0.2l-0.1,0.1h0.1c0.1-0.1,0.2-0.1,0.3-0.1c0.1,0,0.1-0.1,0.1-0.1c0,0.1,0,0.1,0,0.1c0,0.1,0,0.2,0,0.2
							L2,29.7c0.1-0.2,0.4-0.3,0.7-0.3c0.1,0,0.2-0.1,0.3-0.1c0,0,0.1,0,0.1-0.1H3c-0.1,0-0.1,0-0.3,0.1c-0.1,0-0.1,0-0.1-0.1
							c0.1-0.1,0.1-0.4,0.2-0.5c-0.1-0.1,0.1-0.2,0.1-0.4c0-0.1,0.1-0.1,0.1,0c0.1,0.1,0.3,0.2,0.4,0.4c0.1,0.1,0.2,0.2,0.4,0.2
							c0.1,0,0.1,0.1,0.1,0.1c0,0.1,0.1,0.3,0.1,0.4s0,0.2-0.1,0.3c-0.1,0.1-0.1,0.1-0.2,0.1c-0.1,0-0.1,0.1-0.1,0.1
							c0,0.1,0.1,0,0.1,0s0.1,0,0.1-0.1H4c-0.1,0.1-0.1,0.1,0,0.1c0.1-0.2,0.4-0.2,0.7-0.2c0.1,0,0.2,0,0.2-0.1s-0.1-0.1-0.2-0.1
							s-0.1-0.1-0.2-0.1c0-0.1-0.1-0.4-0.1-0.5s0-0.1,0-0.3c0-0.1,0-0.1,0-0.2c-0.1-0.2-0.1-0.4,0.1-0.6c0.2-0.1,0.3-0.4,0.4-0.6
							s0.2-0.5,0.3-0.7c0-0.1,0.1,0,0.1,0c0.1,0.1,0.1,0.2,0.2,0.4c0,0,0,0.1,0.1,0.1s0-0.1,0.1-0.1c0-0.1,0-0.1,0-0.1
							c-0.1-0.5,0.1-0.7,0.1-1.1C6.1,26,6,26.2,6,26.7c0.1,0,0.1-0.1,0.1-0.1c0.1-0.6,0.1-0.9,0.1-1.3c0,0-0.1-0.1,0-0.1
							c0.1-0.1,0.1-0.1,0-0.3l0,0c0.2,0.4,0.3,0.6,0.4,1.1c0.1-0.1,0.1-0.2,0.1-0.4c0.1-0.3,0-0.7-0.1-0.9c-0.1-0.1,0-0.1,0-0.2
							c0.1,0.1,0.3,0.1,0.4,0.3l0.1,0.1c0.1,0,0-0.1,0-0.1C7,24.4,7,24.2,6.9,23.9c0-0.1-0.2-0.2-0.2-0.3c0.1-0.1,0.1,0.1,0.3,0.1
							c0.1,0,0.2,0,0.3-0.1c0.1-0.1-0.1-0.1-0.1-0.2s0.2-0.1,0.5,0.1c0.4,0.2,0.6,0.2,0.9,0.5c-0.2-0.4-0.6-0.9-1-1.2
							c-0.5-0.3-1-0.6-1.7-0.7c-0.5,0-0.9,0.1-1.3,0.6c-0.3,0.3-0.5,0.7-0.5,1.1c0,0,0.1,0.1-0.1,0.1c-0.1,0-0.1,0-0.1,0.1
							s0,0.2,0,0.3c0,0.1,0.1,0.2,0.1,0.4c0,0.1,0,0.1-0.1,0.1c-0.3,0.1-0.7,0-0.9-0.1c-0.1,0-0.1-0.1-0.2-0.2
							c-0.1-0.2-0.2-0.5-0.3-0.8c-0.1-0.6-0.4-1.1-0.7-1.5C1.6,22,1.5,22,1.4,21.9c0,0,0,0,0.1,0s0.2-0.1,0.2-0.2s-0.1-0.3-0.1-0.3
							c-0.1-0.1-0.1-0.1-0.2-0.1s-0.1-0.1-0.1-0.1c0-0.1,0-0.1,0-0.1c-0.1,0-0.1,0-0.1,0.1c-0.1,0.1-0.1,0.1-0.1,0.2S1,21.5,1,21.4
							c-0.1-0.1-0.1-0.1-0.1,0C0.5,21.3,0.5,21.3,0.5,21.4z"></path>
					</g>
				</g>
				<g>
					<path class="st1a" d="M50.4,26c0.3,0,0.9-0.1,1.2-0.4c0.4-0.4,0.4-0.9,0.4-1.2c0-0.1-0.1-0.3-0.3-0.3c-0.3,0-0.9,0.1-1.2,0.4
						s-0.4,0.9-0.4,1.2C50.1,25.9,50.3,26,50.4,26z"></path>
					<path class="st1a" d="M49.8,26.9c-0.1,0.1-0.1,0.3,0,0.4c0.3,0.2,0.7,0.4,1.2,0.4s0.9-0.2,1.2-0.4c0.1-0.1,0.1-0.3,0-0.4
						c-0.3-0.2-0.7-0.4-1.2-0.4S50.1,26.7,49.8,26.9z"></path>
					<path class="st1a" d="M52.9,25.8c-0.4-0.1-0.9,0-1.2,0.1c-0.1,0.1-0.2,0.3-0.1,0.4c0.2,0.2,0.6,0.5,1,0.6s0.9,0,1.2-0.1
						c0.1-0.1,0.2-0.3,0.1-0.4C53.7,26.1,53.3,25.8,52.9,25.8z"></path>
					<path class="st1a" d="M54.9,25.5c-0.4-0.1-0.7-0.1-1-0.1c-0.2,0-0.3,0.2-0.2,0.4c0.1,0.2,0.4,0.5,0.8,0.7c0.4,0.1,0.7,0.1,1,0.1
						c0.2,0,0.3-0.2,0.2-0.4C55.5,26,55.2,25.7,54.9,25.5z"></path>
					<path class="st1a" d="M57.1,26.3c-0.2-0.2-0.6-0.4-0.9-0.4c-0.1-0.1-0.4,0.1-0.3,0.3c0.1,0.2,0.1,0.6,0.4,0.9
						c0.2,0.2,0.6,0.4,0.9,0.4c0.1,0.1,0.4-0.1,0.3-0.3C57.5,26.9,57.4,26.5,57.1,26.3z"></path>
					<path class="st1a" d="M58.1,26.6c-0.1-0.1-0.4,0-0.4,0.2s0,0.6,0.1,0.9s0.4,0.5,0.7,0.6c0.1,0.1,0.4,0,0.4-0.2s0-0.6-0.1-0.9
						C58.6,26.9,58.3,26.7,58.1,26.6z"></path>
					<path class="st1a" d="M52.3,25.2c0.3,0.1,0.9,0.1,1.3-0.1c0.4-0.3,0.7-0.8,0.7-1.1c0.1-0.1-0.1-0.3-0.2-0.3
						c-0.3-0.1-0.9-0.1-1.3,0.1c-0.4,0.3-0.7,0.8-0.7,1.1C52.1,25.1,52.2,25.2,52.3,25.2z"></path>
					<path class="st1a" d="M54.6,25c0.3,0.1,0.7,0.2,1.2,0.1c0.4-0.1,0.7-0.4,0.9-0.7c0.1-0.1,0.1-0.4-0.1-0.4
						c-0.3-0.1-0.7-0.2-1.2-0.1c-0.4,0.1-0.7,0.4-0.9,0.7C54.4,24.7,54.5,25,54.6,25z"></path>
					<path class="st1a" d="M56.2,25.5c0.3,0.1,0.7,0.3,1.1,0.2c0.4-0.1,0.8-0.3,1-0.4c0.1-0.1,0.1-0.4-0.1-0.4
						c-0.3-0.1-0.7-0.3-1.1-0.2c-0.4,0.1-0.8,0.3-1,0.4C56,25.2,56,25.4,56.2,25.5z"></path>
					<path class="st1a" d="M58.1,26c0.1,0.2,0.4,0.5,0.8,0.7s0.7,0.1,1,0c0.1-0.1,0.2-0.2,0.1-0.4c-0.1-0.2-0.4-0.5-0.8-0.7
						c-0.4-0.1-0.7-0.1-1,0C58.1,25.7,58,25.8,58.1,26z"></path>
					<path class="st1a" d="M60.7,28c-0.1-0.2-0.2-0.5-0.5-0.7s-0.6-0.2-0.8-0.3c-0.2,0-0.3,0.1-0.2,0.4c0.1,0.2,0.2,0.5,0.5,0.7
						s0.6,0.2,0.8,0.3C60.7,28.4,60.8,28.2,60.7,28z"></path>
					<path class="st1a" d="M44.7,34.1c0.1-0.7,0.7-0.9,1.5-1.2c1.2-0.3,2.1,0.1,2.2,0.2c-0.1-0.5-0.9-1.2-1.5-1.2
						c-0.7,0-1.4-0.1-1.8,0.2L44.7,34.1z"></path>
					<path class="st1a" d="M44.6,35.5l0.3-1.9c0.1-0.7,0.3-1,0.5-1.5c0.4-0.8,1.2-2.2,2.9-2.4c2.7-0.4,3.7,0.1,4,0.3
						c0.4,0.1,0.9-0.2-0.4-0.8c-1.2-0.6-4.1-0.4-4.7-0.1c-0.1,0-0.1,0.1-0.1,0.1c0.9-1.1,1.6-1.8,1.9-2c0.1,0,0.1,0,0.2-0.1
						c0.2-0.1,0.6-0.5,0.7-0.9c0.1-0.4,0-0.9-0.1-1.2c-0.1-0.1-0.2-0.2-0.4-0.1s-0.6,0.5-0.7,0.9c-0.1,0.4,0,0.8,0.1,1
						c-0.3,0.2-1.5,1.2-2.7,2.6c0.4-0.7,0.7-1.3,0.9-1.8c0.8-1.5,1.7-2.7,1.5-4.1c-0.1-1.4-2.5-2.2-2.6-2.1
						c-0.2,0.1,0.7,0.9,1.2,1.7s0.3,2.5-0.9,3.4c-1,0.8-1.1,3.2-1.3,4.5c-0.3,0.7-0.6,1.8-0.8,3.1c0-0.8-0.1-1.2-0.4-1.7
						c-0.3-0.6-1-1.3-1.2-1.4c0.1,0.2,0.2,0.8,0.2,1c0.1,0.2,0.2,0.9,0.2,0.9c0.1,0.4,0.4,1.6,0.5,2c0.2,0.5,0.2,0.9,0.1,1.5
						c0,0-0.1,0.9-0.1,1.5c0.2,0.2,0.5,0.3,0.8,0.1c0-0.1,0-0.3,0.1-0.6L44.6,35.5z"></path>
				</g>
				<path class="st1a" d="M31.9,1.8C31.5,1.9,32.4,3,32.4,3c-0.4,0.1,0.5,0.7,0.5,0.7c-0.2,0.1,0.4,1.1,0.5,1.2s0.1,0.3,0.1,0.3
					c-0.1,0.1,0.1,0.8-0.6,1.2h-0.1c-0.1,0.1-0.6,0.6-0.9,0.9c-0.5-0.2-1-0.3-1-0.3S30,7.1,29.7,7.7c-0.1,0.1-0.1,0.1-0.1,0.2
					c-0.1,0.1-0.3,0.4-0.4,0.6c-0.1,0.1-0.4,0.4-0.6,0.8c-0.1,0.4-0.1,0.7-0.1,0.8s-0.1,0.1-0.1,0.2c-0.1,0.1-0.3,0.2-0.2,0.5
					c-0.1,0.1-0.1,0.3-0.1,0.4c-0.1,0.1-0.2,0.3-0.2,0.6c-0.1,0.2-0.1,0.4-0.2,0.7s-0.1,0.6-0.2,0.8s-0.1,0.4-0.1,0.7
					c-0.1,0.3-0.1,0.5-0.2,0.8c-0.1,0.1-0.1,0.4-0.1,0.6c0,0.1-0.1,0.2-0.1,0.3s-0.1,0.2-0.1,0.3c-0.3,0.5-0.8,1.8-0.4,2
					c0.5,0.4,0.7-0.7,0.7-0.7s0.8-0.9,0.7-1.2L28,16c0.2-0.2,0.7-0.7,0.7-1.1c0.4-0.6,0.9-1.2,1.4-1.8c0.1-0.1,0.1-0.2,0.2-0.3
					s0.1-0.1,0.1-0.1c0.1-0.1,0.2-0.2,0.3-0.4c0.4-0.2,0.8-0.6,0.7-0.9c0.1-0.1,0.1-0.2,0.2-0.3c0.2-0.3,0.6-0.7,0.6-1
					c0.1-0.2,0.3-0.4,0.4-0.6c0.4-0.4,0.7-0.8,0.7-1.1c0.1-0.1-0.4-0.8-0.7-1.1c0.2-0.2,0.7-0.5,0.9-0.7c0.4-0.2,1.7,0.1,2.2,0.4
					c0.4,0.3,1.2,0.5,1.7,0.5s0.4-0.4,0.4-0.4C39,7.9,39,7,39,6.9c0.5,0.3,0.9,0.2,1.1-0.1S39.9,6,39.9,6c0.3,0,0.4-0.3,0.3-0.7
					s-0.9-0.5-0.9-0.5c-0.4-0.9-1.5-0.3-1.5-0.3c-0.8-1.2-1.8,0-1.8,0C35.5,4,34.8,4.7,34.7,5c-0.1,0.4-0.4,0.8-0.7,1
					c-0.1,0-0.1,0.1-0.2,0.1l0,0C33.9,5.7,34,5.3,34,5.3c0.1-0.3,0.7-1.2,0.9-2c0.1-0.8-0.2-0.8-0.1-1C35.1,1.5,34,1,34,1
					c-0.1-0.9-1.2-0.9-1.2-0.9C32.3,0,32.2,0,32,0h0.1c-0.6-0.1-0.2,0.8-0.2,0.8C31.4,0.9,31.9,1.8,31.9,1.8z M28.4,10.9L28.4,10.9
					L28.4,10.9L28.4,10.9z M28.4,14.7L28.4,14.7L28.4,14.7L28.4,14.7z"></path>
			</g>
			<g>
				<path class="st2a" d="M8,16.3c1.4-0.9,2.9-1.8,4.1-2.7c0.2-0.2,0.6-0.9,0.2-1.2c-0.3-0.4-0.8-0.1-1.2-0.1s-0.7,0.4-0.9,0.7
					c-0.9,0.9-2,1.7-2.9,2.6c-0.8-0.9-1.7-1.2-1.7-1.2s-2,2.9-2.8,4.2c-0.2,0.4-0.4,1-0.3,1.5c0.1,0.2,1.1,0.2,1.5,0.1
					c1.5-0.6,5-2,5-2S8.7,17.3,8,16.3z"></path>
				<g id="ILgsBk_21_">
					<g>
						<path class="st2a" d="M14.4,9.3c0-0.8,0.1-1.7,0.3-2.5c0.1-0.3,0.3-0.6,0.7-0.7c0.1,0,0.2-0.1,0.3-0.1c0.5-0.4,1.1-0.7,1.7-0.6
							c0.7,0.1,1.5,0.3,2.1,0.4c0.7,0.1,1.3,0.1,2-0.1c0.4-0.2,0.8-0.3,1.2-0.4c0.6-0.1,1.1-0.3,1.7-0.4c0.4-0.1,0.9-0.4,1.5-0.4
							c0.3,0,0.7,0,0.9-0.2C26.9,4.2,27,4.2,27,4.4s0.1,0.2,0.2,0.1c0.1,0,0.1-0.1,0.2-0.1s0.1-0.1,0.2-0.1c0.1,0.1,0,0.1-0.1,0.2
							c-0.2,0.4-0.3,0.7-0.1,1.1c0,0.1,0.1,0.1,0,0.2c-0.1,0.4,0,0.7,0.1,1s0.1,0.5,0.1,0.8s-0.2,0.5-0.4,0.6
							c-0.4,0.1-0.6,0-0.7-0.3S26.2,7.4,26,7.2c-0.4-0.4-0.4-0.4-0.9-0.1C25,7.1,25,7.2,25,7.2c-0.4,0.4-0.9,0.7-0.9,1.2
							c-0.1,0.4-0.2,0.7-0.5,0.9c-0.4,0.3-0.5,0.8-0.6,1.2s-0.1,0.9-0.1,1.4c-0.1,0.4-0.1,0.9,0.1,1.3c0.1,0.2,0.3,0.4,0.3,0.7
							c0.1,0.3,0,0.4-0.4,0.4c-0.6,0-0.4-0.7-0.7-0.9c-0.1-0.1-0.1-0.1-0.1-0.3c0-0.1,0-0.1,0-0.1c0-0.2,0.1-0.4,0.1-0.6
							c0.1-0.3,0-0.6-0.1-1C22,11.6,22,11.8,21.9,12c-0.2,0.7-0.4,1.3,0.1,2c0.1,0.1,0.1,0.2,0.1,0.4c0,0.1,0,0.1,0,0.2l0,0
							c-0.4,0-0.7-0.2-0.9-0.5c0.1-0.1,0.1-0.2,0-0.3c-0.2-0.2-0.2-0.5-0.1-0.7c0.3-0.9,0.3-1.9,0.4-2.8c0-0.4-0.1-0.2-0.6-0.1
							c-1.2,0.2-2.2,0-3.2-0.7c-0.2-0.1-0.4,0-0.5,0.1c-0.4,0.5-0.4,0.9-0.7,1.5c-0.1,0.3-0.2,0.6-0.1,0.9c0.1,0.4,0.3,0.8,0.4,1.2
							c0.1,0.1,0.2,0.3,0.4,0.4l0,0c0.2,0.1,0.3,0.2,0.4,0.4c-0.1,0.1-0.4,0.1-0.5,0.1s-0.3,0-0.4-0.1c0.1-0.1,0-0.2-0.1-0.2
							c0,0,0,0,0-0.1s0-0.1-0.1-0.2c-0.1-0.1-0.1-0.1-0.1-0.3c-0.1-0.7-0.8-1.2-0.5-2.3c-0.2,0.3-0.6,0.9-0.6,1.3c0,0.4,0,0.8,0,1.2
							c0,0.2,0.1,0.3,0.3,0.4c0.1,0.1,0.2,0.4,0.3,0.5v0.1c-0.2,0.1-0.4,0.2-0.7,0.1c-0.1-0.1-0.4-0.1-0.4-0.3c0-0.1,0-0.3-0.1-0.4
							c-0.2-0.1-0.2-0.4-0.1-0.6c0.1-0.3,0.2-1.2,0.1-1.5c-0.1,0.2-0.4,0.7-0.6,0.8c0-0.2-0.1-0.4-0.1-0.7c0-0.7,0.3-1.1,0.4-1.8
							C14.3,9.7,14.4,9.5,14.4,9.3z"></path>
					</g>
				</g>
				<path class="st2a" d="M37.9,10.5c-0.4-0.2-0.6,0.6-0.7,0.9c-0.1,0.2-0.1,0.4-0.1,0.6c-0.4-0.1-2.5-0.3-2.5-0.3l0,0
					c0.1-0.1,0.4-1,0.4-1.3c0-0.2,0-0.6-0.2-0.6s-0.4,0.4-0.5,0.7c0,0,0,0,0,0.1c-0.5,1.5-0.9,2.8-1.4,4.4s-1.5,4.2-1.8,5.6
					c-0.1,0.7-3,8.5-2.9,9.3c0.1,0.4,0.1,0.8,0.4,0.4c0.4-0.4,0.4-0.7,0.7-1.4c0.1-0.6,0.4-1,0.4-1.6c0.2,0.1,3.2,0.7,3.5,0.7
					c-0.1,0.4-0.2,0.7-0.2,1.2c-0.1,0.2-0.2,0.7-0.1,0.9c0.4,0.6,0.7-0.1,0.7-0.4v-0.1c0.1-1.7,2-8.9,2.2-9.7c0.5-1.5,0.6-2.3,1-3.9
					c0.2-0.7,0.9-3.4,0.9-3.9C37.9,11.7,38.2,10.7,37.9,10.5z M34.5,12.3c0.2,0.1,1.7,0.3,2.5,0.4c-0.1,0.8-0.3,1.6-0.5,2.3
					c-0.3-0.1-2.3-0.4-2.7-0.4C34,14,34.5,12.3,34.5,12.3z M33.5,15.3c0.3,0.1,2.7,0.6,2.8,0.6c-0.1,0.7-0.3,1.3-0.4,1.9
					c-0.4-0.1-2.7-0.3-3.1-0.4C32.7,17.2,33.3,15.8,33.5,15.3z M34.1,24.2c-0.4-0.1-2.9-0.7-3.2-0.7h-0.1c0.3-0.9,0.6-1.7,0.9-2.6
					c0.4,0.1,2.8,0.7,3,0.7C34.6,22.2,34.3,23.9,34.1,24.2z M29.9,26.7c0.1-0.6,0.7-2.2,0.7-2.5c0.8,0,2.8,0.6,3.3,0.7
					c-0.2,0.7-0.6,2.3-0.6,2.4C33.1,27.2,29.9,26.7,29.9,26.7z M34.9,21L34.9,21c-1-0.1-2.9-0.6-3-0.7c0.1-0.1,0.5-1.8,0.7-2.3
					c0.3,0,3,0.4,3.1,0.4C35.6,18.7,35.1,20.4,34.9,21z"></path>
				<path class="st2a" d="M27.9,5L27.9,5L27.9,5L27.9,5z"></path>
				<path class="st2a" d="M20,16.3c-0.2,0-0.4,0.1-0.7,0.3c0.1-0.1,0.1-0.1,0.1-0.1c0.3-0.2,0.4-0.5,0.4-0.9
					c-0.1-0.3-0.1-0.3-0.1-0.6c-0.5,0.3-0.8,0.4-0.9,0.8c-0.1-0.1-0.1-0.1-0.2-0.1c-0.3-0.1-0.3-0.1-0.5-0.2c0,0.3,0,0.6,0,0.7
					c-0.4-0.1-0.7,0.1-1.2,0.7c0.3,0.2,0.3,0.2,0.6,0.4c0.3,0.1,0.5,0.2,0.7,0.1C18,17.6,17.9,18,18,18.5c0.1,0.8,0.6,1.3,1.4,1.5
					c0.3,0.1,4,1.9,2.5-2C21.4,17.1,21,16.1,20,16.3z"></path>
				<path class="st2a" d="M26.6,26.9c1.3-1.6,1.7-3.4,1-5.2c-0.3-0.8-0.9-1.5-1.7-1.8c-0.1-0.1-0.4,0.1-0.6-0.1
					c-0.3-0.1-0.6-0.4-0.9-0.6c-0.4-0.4-0.7,0.1-0.7,0.1c0.1,0.2,0.6,0.3,0.7,0.4c0.3,0.4,0.5,0.5,0.5,1c0,0.3,0,0.7,0.1,0.9
					c0.3,2-0.7,3.9-2.7,4.9c-0.6,0.3-1.2,0.4-1.7,0.7c-0.2,0.1-0.4,0.1-0.5,0.4c-0.1,0.2,0.1,0.4,0.3,0.6c0,0,0,0,0.1,0.1
					c0.3,0.1,0.7,0.3,0.9,0.4c1.5,0.3,2.9-0.1,4.3-1C25.9,27.6,26.3,27.3,26.6,26.9z"></path>
				<path class="st2a" d="M22.8,44.1c-0.1,0.1-0.1,0.1-0.2,0.2c-0.3,0.2-0.9,0.4-1.3,0.4c-0.4,0.1-0.8,0-1.2,0H20l0,0
					c-0.2-0.1-0.4-0.1-0.5-0.1c-0.1-0.1-0.2-0.1-0.4-0.1H19c-0.5-0.3-0.9-0.7-1.2-1.1c-0.2-0.4-1.2-1-1.6-0.4c0,0-1.7-1.2-2,0.3
					c0,0-1.7-0.5-1.6,0.6c0,0-0.9,0.3-0.8,0.7c0.1,0.4,0.3,0.7,0.7,0.7c0,0-0.3,0.5,0.1,0.9c0.5,0.4,0.9,0.4,1.4,0
					c0.1,0.2,0.7,1.1,1.7,0.4c0,0,0,0.4,0.7,0.4c0.7-0.1,1.4-0.4,1.7-0.8c0.3-0.3,0.8-0.7,1.3-0.8c0,0,0.6-0.1,1.2-0.1
					c0.1,0,0.2,0.1,0.3,0.1l0,0c0.4,0.1,0.7,0.1,1.1,0.1c0.2-0.1,0.4-0.1,0.7-0.2c0.2-0.1,0.4-0.3,0.5-0.5l0,0
					C23.2,44.2,23,44.1,22.8,44.1z"></path>
				<path class="st2a" d="M17.1,40c0.2,0.2-0.6,0.5,0.2,1.5c0.8,0.9,2.5,1.6,2.8,2c0.1,0.1,0.4,0.5,1.3,1c0.1,0,0.5,0.2,0.5,0.2
					s1.2-0.1,0.5-0.2s-1.9-1.2-2-1.2c0,0-0.1-0.1-0.1-0.4c0-0.2,0.4-1.5,0-1.7c0,0,0.7-0.9,0.1-1c0,0,0.4-1.5-0.2-1.5
					c0,0-0.1-1.2-0.7-1.2c0,0-0.2-1.2-0.9-0.9c0.1,0,0.1,0,0.1-0.1c-0.1,0-0.4,0.1-0.7,0.4c0,0-1.5,0.2-0.9,1.4
					C17.1,38.3,16.1,39.2,17.1,40z"></path>
				<path class="st2a" d="M33,41.4c-0.3,0-0.4,0.3-0.6,0.4c-0.1,0.1-0.2,0.1-0.4,0.2c-0.2,0.1-0.4,0.1-0.7,0.1
					c-0.2,0.1-0.4,0.2-0.5,0.4c-0.4,0.2-0.7,0.4-1.2,0.4c-0.4,0-0.7-0.1-1.1-0.4c-0.2-0.3-0.5-0.7-1-1c-0.8-0.6-1.7-0.7-2.5-0.5
					c-0.4,0-0.8,0.1-1.1,0.4c-0.3,0.2-0.6,0.5-0.9,0.7c-0.2,0.2-0.4,0.4-0.6,0.7c-0.2,0.4-0.4,0.8-0.5,1.2c0,0.1,0,0.1,0,0.1
					s0,0,0,0.1s0,0.2,0,0.3s0,0.1,0,0.1l0,0c0.1,0.4,0.1,0.7,0.3,1c0,0.1,0.1,0.1,0.1,0.3c0,0,0,0,0.1,0.1c0.2,0.4,0.7,0.9,1.1,1.1
					c0.2,0.1,0.6,0.3,0.9,0.3c0.7,0.2,1.4,0.3,2.1,0.1c0.4-0.1,0.7-0.2,0.9-0.4c0.6-0.4,1.2-1,1.3-1.2l0,0l0,0l0,0
					c0.2-0.2,0.4-0.4,0.6-0.7c0.1-0.2,0.3-0.4,0.4-0.7c0.1-0.2,0.4-0.4,0.5-0.5c0.4-0.1,0.9-0.3,1.1-0.7c0.1-0.1,0.1-0.1,0.1-0.2
					c0.1-0.1,0.2-0.1,0.3-0.1c0.1,0,0.1-0.1,0.2-0.1c0.1-0.1,0.2-0.2,0.4-0.4c0.1-0.1,0.2-0.1,0.3-0.2c0.1-0.1,0.2-0.3,0.4-0.4
					C33.3,41.7,33.4,41.4,33,41.4z"></path>
				<path class="st2a" d="M41.7,18.4L41.7,18.4c0.1-1.5-0.4-2.3-1.9-2.8c0,0.6-0.1,1.2-0.1,1.7c0,0.7,0.3,1.2,0.9,1.5
					c0.4,0.1,0.5,0.4,0.6,0.6c-0.5,0.4-0.8,0.6-1.1,0.9c-0.5,0.5-0.9,1.2-1.5,1.6c-1.2,0.9-1.5,2.5-0.6,3.5c0.4,0.4,0.9,0.5,1.5,0.8
					c0.9,0.5,1.7,0.4,2.5-0.4s0.9-1.7,0.6-2.8c-0.1-0.4-0.3-0.9-0.2-1.3c0.1-1.3,0.1-1.3-0.7-2.2c1.7-1,1.7-1,2.2-2
					C43,17.4,42.2,17.7,41.7,18.4z"></path>
				<g>
					<path class="st2a" d="M14.5,40.3c-0.2-0.1-0.4-0.1-0.5-0.3c-0.1,0-0.1-0.1-0.1-0.1c0.1-0.3,0.6-1.5,0.2-2.2
						c-0.3-0.7-0.7-0.6-0.8-0.9c-0.1-0.1-0.2-0.2-0.4-0.3v0.1c-0.1,0.7-0.5,1.2-0.7,1.8c-0.1,0.2,0.1,0.7,0.2,1
						c-0.2-0.1-0.4-0.3-0.5-0.3c-0.5-0.1-1.5,0.9-2.7,0.7c0.1,0.1,0.3,0.3,0.4,0.5c0.5,0.1,1,0.7,1.5,0.9c0.7,0.3,2.3-0.4,2.3-0.4
						c0.4,0.3,0.9,0.6,1.3,0.6c0.1-0.1,0.2-0.2,0.3-0.4l0,0C15,40.7,14.9,40.5,14.5,40.3z"></path>
					<path class="st2a" d="M9.9,36.4c0.2,0.4,1.2-1.4,1.1-1.9c-0.1-0.5-0.4-0.8-0.2-1.2c0,0,0-0.1,0.1-0.1c-0.1,0.1-0.2,0.1-0.3,0.1
						s-0.1,0.1-0.3,0.3c-0.3,0.7-0.8,1-1.1,1.3C9.1,35.1,9.7,36,9.9,36.4z"></path>
					<path class="st2a" d="M8.3,32.3c-0.1,0.4,0.2,1.5,0.5,2s1.4-1.3,1.4-1.8c0-0.4-0.2-0.9,0-1.5c0-0.2,0-0.4,0-0.7
						c-0.1,0.3-0.2,0.6-0.4,0.6C9.1,31.2,8.5,32,8.3,32.3z"></path>
					<path class="st2a" d="M10.3,36.9c0.1,0.3,0.8,0.9,1.2,1.2s0.8-1.5,0.7-1.9c-0.1-0.1-0.2-0.4-0.3-0.6c-0.1-0.2-0.3-0.4-0.4-0.7
						c0,0.1-0.1,0.3-0.1,0.4C11.2,35.9,10.2,36.6,10.3,36.9z"></path>
					<path class="st2a" d="M8.6,37.1c0.7,0.2,0.9,0.1,0.9-0.2c0.1-0.5-0.9-2-1.4-1.7c-0.4,0.2-0.7-0.1-1.2,0c-0.1,0-0.3,0-0.4-0.1
						c-0.1,0-0.1,0-0.2,0c0.1,0.1,0.1,0.3,0.2,0.5c0.3,0.3,0.4,0.8,0.9,1.2S8.2,37,8.6,37.1z"></path>
					<path class="st2a" d="M8.2,34.7c0-0.5-0.4-2.1-0.8-2.1c-0.4,0.1-1,0.1-1.3-0.1C6,32.4,6,32.3,6,32.3c-0.1-0.1-0.2-0.1-0.3-0.1
						c0.1,0.3,0.1,0.6,0.1,0.9l0.7,1.4C6.4,34.4,8.2,35.2,8.2,34.7z"></path>
					<path class="st2a" d="M9.9,39.3c0.5-0.3,0.8-0.4,1.2-0.4s-1-1.6-1.5-1.3c-0.4,0.2-0.8,0.1-1.2,0.1c-0.1,0-0.1,0-0.2,0l0,0H8.1H8
						c0.1,0.2,0.1,0.5,0.3,0.7c0,0.1,0.1,0.1,0.1,0.1C8.6,39.2,9.4,39.6,9.9,39.3z"></path>
					<path class="st2a" d="M7.8,32L7.8,32c0.2-0.6,0.7-0.9,1.1-1.2C9,30.7,9,30.5,9.2,30.4c0.4-0.6-0.2-1.1-0.9-1.8
						c-0.1-0.2-0.3-0.3-0.4-0.4C7.8,28,7.8,28,7.7,27.9c0-0.1-0.1-0.1-0.1-0.1l0,0l0,0c-0.1-0.1-0.2-0.1-0.3-0.2
						c-0.1,0.1-0.1,0.4-0.1,0.5C7.1,28.2,7,28.5,7,28.6c-0.1,0.2-0.1,0.5-0.2,0.7c-0.2,0.4-0.5,1.2-0.3,1.5C6.7,31.3,7.5,32,7.8,32z
						"></path>
				</g>
				<path class="st2a" d="M41.7,37.4c-0.1-0.1-0.3-0.2-0.4-0.3c-0.3-0.1-0.4-0.4-0.6-0.7c-0.1-0.3-0.3-0.6-0.4-0.9
					c-0.1-0.1-0.1-0.4-0.2-0.5c0-0.1,0-0.1,0-0.1c0.4-0.5,0.5-1.2,0.4-1.8c-0.1-0.4-0.1-0.8-0.1-1.2c0.1-0.4,0.2-0.7,0.6-0.9
					c0.1,0,0.1-0.1,0.1-0.1c0.3-0.2,0.4-0.5,0.1-0.8C41.1,30,41,30,40.9,29.9s-0.1-0.4-0.1-0.5s0-0.1,0.1-0.1
					c0.4-0.1,0.6-0.5,0.7-0.9c0.1-0.1-0.1-0.2-0.2-0.2c-0.2,0-0.4,0.1-0.7,0.2c-0.1,0.1-0.1,0.2-0.2,0.3c0,0,0,0,0,0.1
					c-0.1,0-0.1-0.1-0.1-0.1s-0.1-0.1-0.2-0.1l0,0c0.1-0.1,0-0.4,0-0.5c0,0,0-0.1-0.1-0.1c0,0,0,0.1-0.1,0.1c0,0.1-0.1,0.2-0.1,0.4
					c-0.1,0-0.1,0-0.1-0.1c-0.1,0-0.1-0.1-0.2-0.1c0,0,0,0-0.1,0s-0.1,0.1-0.2,0.1c-0.1,0.1-0.2,0.1-0.3,0.1s-0.1,0.1-0.1,0.1
					c0,0.1-0.1,0.1-0.1,0.2c-0.1,0-0.2,0-0.4-0.1c0,0-0.1-0.1-0.1,0c0.1,0.2,0.2,0.4,0.4,0.5c0,0.1,0,0.1,0,0.2c0,0,0,0-0.1,0
					c-0.3-0.1-0.6,0-0.8,0.1c-0.1,0.1-0.1,0.1,0,0.3c0.2,0.1,0.4,0.3,0.7,0.2c-0.1,0.1-0.2,0.1-0.3,0.1c-0.1,0.1-0.4,0.1-0.5,0.2
					l0,0c-0.1,0.1-0.2,0.1-0.4,0.1c-0.1,0.1-0.2,0.1-0.4,0.1c-0.1,0.1-0.4,0.1-0.5,0.1l-0.1,0.1c-0.1,0.1-0.4,0.1-0.5,0.2
					c-0.3,0.1-0.5,0.3-0.9,0.4c-0.1,0-0.2,0.1-0.4,0.1c-0.2,0.1-0.5,0.1-0.7,0.2c-0.4,0.1-0.8,0.1-1.2,0.2c-0.1,0.1-0.4,0.1-0.5,0.1
					c-0.4,0.1-0.9,0.2-1.3,0.4c-0.5,0.1-0.7,0.5-0.7,0.9v0.1c0,0.2,0,0.5,0.1,0.7c0,0.1,0.1,0.3,0.2,0.4c0.1,0.2,0.2,0.4,0.2,0.4
					c0.2,0.4,0.4,0.8,0.4,1.2c0.1,0.3,0.1,0.5,0.2,0.8c0.1,0.2,0.1,0.4,0.1,0.7c0.1,0.3,0.2,0.5,0.4,0.7c0,0,0,0.1,0.1,0.1v-0.1
					c0-0.3,0-0.5-0.1-0.8c0-0.1-0.1-0.2-0.1-0.4l-0.1-0.1c-0.1-0.4-0.1-0.7-0.3-1.1c0-0.1-0.4-1.2-0.4-1.4c0,0,0-0.1-0.1-0.1l0,0
					c0.1,0.1,0.2,0.2,0.3,0.4c0.1,0.3,0.4,0.5,0.5,0.9c0.1,0.1,0.2,0.3,0.3,0.5c0.1,0.2,0.2,0.5,0.1,0.7c-0.1,0.3,0,0.6,0.2,0.8
					c0.2,0.2,0.3,0.4,0.4,0.7c-0.1,0.3-0.1,0.5,0.1,0.8c0,0,0,0,0.1,0.1s0.2,0.1,0.3,0.2s0.1,0.1,0.2,0.2c0.1,0,0.2,0.1,0.4,0
					c0.1-0.1,0.1-0.1,0.2-0.1V40c-0.1-0.1-0.1-0.1-0.1-0.1c-0.1-0.1-0.2-0.1-0.3-0.3c0-0.1,0-0.1,0-0.1c-0.1-0.1-0.1-0.4-0.2-0.5
					c-0.1-0.2-0.1-0.4-0.1-0.7v-0.1c0,0,0.1,0,0.1,0.1c0.2,0.2,0.4,0.5,0.4,0.8l0,0c0.1,0.1,0.1,0.4,0.2,0.5s0.3,0.1,0.4,0.3
					c0.2,0.1,0.4,0.2,0.7,0l0.1-0.1v-0.1c0,0,0-0.1-0.1-0.1c-0.1-0.1-0.2-0.1-0.3-0.2h-0.1c0,0-0.1,0-0.1-0.1
					c-0.1,0-0.2-0.1-0.3-0.1C34,39.1,34,38.8,34,38.7c-0.1-0.2-0.2-0.4-0.4-0.7c0-0.1,0-0.1,0.1-0.2h0.1c0.1,0,0.1,0,0.1,0.1l0,0
					C33.9,38,34,38,34,38l0,0c0.1,0,0.1,0,0.1,0c0-0.1,0.1-0.1,0-0.1v-0.1l0,0l0,0l0,0c0.1,0,0.1,0,0.1-0.1l0,0l0,0l0,0
					c0,0,0,0,0.1,0c0.1,0.1,0.1,0.2,0.2,0.1c0.1,0,0.1-0.2,0-0.3v-0.1l0,0l0,0l0,0l0.1-0.1c0,0,0-0.1,0.1-0.1l0,0l0,0c0,0,0,0,0.1,0
					s0.1,0.1,0.2,0c0.1-0.1,0-0.2-0.1-0.2l0,0l0,0l0,0c0,0,0-0.1,0.1-0.1c0.1-0.1,0.1-0.2,0.1-0.4c0.6-0.1,1.1-0.3,1.6-0.5
					c0.4-0.2,0.9-0.4,1.3-0.4c0.1,0,0.1,0,0.1,0.1c-0.1,0.3,0,0.5,0.1,0.8s0.1,0.6,0.1,0.9l0,0c0,0.1,0,0.2,0,0.4
					c0.1,0.1,0.1,0.2,0.1,0.4c0,0.1,0,0.1,0,0.2c0.1,0.1,0.2,0.1,0.4,0.2c0.1,0,0.3,0,0.4,0c0.2-0.1,0.2-0.2,0.2-0.4l-0.1-0.1
					c-0.4-0.4-0.4-0.8-0.4-1.3c0-0.3,0.1-0.6,0.1-0.9c0-0.1,0-0.1,0-0.3c0.1,0.1,0.2,0.1,0.3,0.2c0.3,0.3,0.4,0.6,0.5,0.9
					c0.1,0.1,0.1,0.3,0.1,0.5c0,0.1,0,0.1,0.1,0.1c0.1,0.1,0.2,0.3,0.4,0.4c0,0.1,0.1,0.1,0.1,0.1c0.1,0.1,0.1,0.1,0.2,0.1h0.1h0.1
					c0.2-0.1,0.4-0.1,0.6-0.2C41.7,37.5,41.7,37.4,41.7,37.4z"></path>
				<path class="st2a" d="M57.6,16.1L57.6,16.1L57.6,16.1c-0.1-0.3-0.3-0.5-0.4-0.7c0-0.1-0.1-0.1-0.1-0.1s0,0-0.1,0
					c-0.1-0.1-0.1-0.1-0.2-0.1c-0.1-0.1-0.2-0.1-0.4-0.2c0,0-0.1,0-0.1-0.1c-0.1,0-0.1-0.1-0.2-0.1c-0.1-0.1-0.1-0.1-0.2-0.1
					c-0.2-0.1-0.4-0.2-0.7-0.1c-0.3-0.1-0.6-0.1-0.8,0c-0.1-0.1-0.2-0.1-0.3-0.1c-0.1-0.1-0.4-0.1-0.5,0c-0.3-0.1-0.6,0-0.9,0
					c-0.1,0-0.4,0-0.5,0c-0.1-0.1-0.1-0.1-0.1-0.1c-0.1-0.1-0.1-0.2-0.2-0.3c0-0.1,0-0.1-0.1-0.2c0-0.1-0.1-0.3-0.2-0.4
					c-0.1-0.1-0.2-0.2-0.3-0.4c-0.1-0.1-0.2-0.3-0.4-0.2h-0.1c-0.1-0.1-0.3-0.1-0.5-0.1c-0.3,0-0.6,0.1-0.7,0.4
					c-0.1-0.1-0.4-0.2-0.4-0.2s-0.3-0.1-0.2,0s0.1,0.1,0.1,0.3c0.1,0.1,0.1,0.1,0.2,0.1c0.1,0,0.1,0,0.1,0c0,0.1-0.1,0.1-0.1,0.2
					c-0.1,0.1-0.1,0.2-0.2,0.3c0,0.1-0.1,0.3-0.1,0.4c0,0.3,0.1,0.4,0.5,0.4c0,0,0,0,0.1,0l0,0c0,0,0,0,0,0.1v0.1l0,0
					c-0.1,0.4-0.2,0.7-0.3,0.9c0,0.1-0.1,0.1-0.1,0.2c0,0.1,0,0.2,0,0.4c0,0,0,0,0,0.1s0,0.2,0,0.3c0.1,0.1,0.1,0.2,0.2,0.4v0.1
					c0.1,0.1,0.2,0.4,0.4,0.5c0,0.1,0,0.1,0.1,0.1c0,0.1,0,0.1,0.1,0.1c0.1,0.1,0.1,0.1,0.1,0.3c0,0.2,0.1,0.4,0.1,0.5
					c0.1,0.3,0.1,0.6-0.1,0.9c0,0.1-0.1,0.1-0.1,0.1c0,0.1,0,0.2-0.1,0.3c-0.1,0.1-0.1,0.1,0,0.2s0.2,0.1,0.4,0.1
					c0.1,0,0.1-0.1,0.1-0.2s0-0.1,0.1-0.1c0-0.2,0.1-0.4,0.2-0.7c0.1-0.1,0.1-0.2,0.1-0.4c0.1-0.1,0.2-0.2,0.3-0.4
					c0.1-0.1,0.1-0.1,0.1-0.1l0,0l0,0c0,0,0.1,0,0.1-0.1c0.2,0,0.4,0.1,0.4,0.3c0.1,0.1,0.1,0.1,0.1,0.2c0.1,0,0.1,0.1,0.1,0.1l0,0
					c0.1,0.1,0.1,0.3,0.1,0.4s0.1,0.1,0.1,0.1c0.1,0.1,0.1,0.2,0,0.4V20l0,0v0.1c0.1,0.2,0.1,0.4,0,0.7c-0.1,0.1,0,0.1,0.1,0.2
					s0.2,0.1,0.3,0.1s0.2-0.1,0.2-0.1c0-0.1,0-0.1,0.1-0.2c0-0.1,0-0.3,0-0.4l-0.1-0.1c0,0,0,0,0-0.1c0-0.4-0.1-0.7-0.2-1.1
					c-0.1-0.1,0-0.1,0.1-0.2c0.1,0,0.1-0.1,0.1-0.1c0.1-0.1,0.2-0.1,0.4-0.2c0.1,0,0.4,0,0.5,0.1c0.1,0,0.3,0,0.5-0.1
					c0.1,0,0.1,0,0.1,0s0,0,0.1,0.1c0.4,0,0.8,0.5,0.9,0.7v0.1v0.1c-0.1,0.3-0.2,0.6-0.3,0.9c0,0.1,0,0.1,0.1,0.2
					c0.2,0.1,0.4,0.1,0.4-0.1c0.1-0.1,0.1-0.3,0.1-0.5c0-0.3,0.1-0.5,0.1-0.7v-0.1c0.1,0.1,0.1,0.2,0.1,0.3c0,0.1,0,0.3-0.1,0.4
					s-0.2,0.3-0.3,0.4s0,0.3-0.1,0.5c-0.1,0.1,0,0.2,0.1,0.3c0.2,0.1,0.4,0,0.4-0.2c0-0.1,0.1-0.2-0.1-0.2c0.1-0.1,0.1-0.2,0.1-0.3
					c0-0.1,0-0.1,0.1-0.2s0.2-0.3,0.4-0.4c0.1-0.1,0.1-0.1,0.1-0.2c0.1-0.1,0.1-0.3,0.1-0.4s0-0.1,0-0.1c0-0.1-0.1-0.3,0-0.4
					c0.1-0.4,0.3-0.7,0.4-1c0.1-0.3,0.3-0.6,0.3-0.9h0.1c0.1,0,0.3-0.1,0.4-0.2C57.7,16.3,57.6,16.2,57.6,16.1z"></path>
				<g>
					<path class="st2a" d="M18.4,21.7c-0.2,0.1-0.5,0.2-0.7,0.3c0.1-0.3,0.4-0.6,0.6-0.8c0.1-0.1,0-0.1-0.1-0.1
						c-0.4,0-0.9,0.2-1.4,0.4c-0.4,0.1-0.8,0.4-1.2,0.7c-0.4,0.4-0.8,1-0.7,1.6c0,0,0,0,0,0.1S15,24,15,24c-0.2,0.5-0.4,1.5-0.1,2.4
						c0.2,0.8,0.5,1.5,0.7,1.9c0-0.1,0.1-0.1,0.1-0.1h0.1c-0.3-0.6-0.6-1.3-0.7-1.9c-0.1-0.9-0.1-1.6,0.1-2c0.5,0.1,1.3-0.3,1.7-0.4
						c0.6-0.3,1.5-1,1.5-1.8C18.5,21.7,18.4,21.7,18.4,21.7z"></path>
					<path class="st2a" d="M17.1,25.9c-0.1,0.2-0.9,1.4-0.4,2.6c0.2,0.5,0.2,0.4,0.2,0.1c-0.5-1.3,0.3-2.3,0.4-2.5
						c0.4,0.4,1.2,0.2,1.7-0.1c0.4-0.2,0.7-0.5,1.1-0.7c0.2-0.1,0.4-0.4,0.5-0.6c0-0.1,0-0.1-0.1-0.1c-0.2,0-0.4,0-0.7,0
						c0.2-0.1,0.4-0.3,0.5-0.6c0-0.1,0-0.1-0.1-0.1c-0.2,0-0.5-0.1-0.7,0c-0.2,0-0.5,0.1-0.7,0.1c-0.4,0.1-0.7,0.4-1,0.5
						C17.5,24.9,16.9,25.3,17.1,25.9z"></path>
					<path class="st2a" d="M24.8,31.3c-0.9-0.2-3-0.4-3.8-0.7c-0.9-0.3-1.7-0.8-2.4-1.1l0,0l0,0l-0.1-0.1c-0.1,0-0.1-0.1-0.1-0.1
						c-0.1-0.1-0.2-0.1-0.3-0.1c-0.2-0.1-0.4-0.2-0.7-0.4c-0.4-0.3-0.9-0.6-1.3-0.9c-0.5-0.4-0.9-0.7-1.4-1.1
						c-0.2-0.2-0.4-0.4-0.7-0.6c-0.4-0.4-0.7-0.9-1-1.4c-0.1-0.1-0.1-0.2-0.1-0.3l-0.1-0.1c-0.1-0.1-0.2-0.4-0.3-0.5
						c0-0.1,0-0.4-0.1-0.5c0-0.1,0-0.3-0.1-0.4v0c0,0,0,0,0-0.1c0-0.2,0.1-0.4,0.1-0.5s0.1-0.4,0.1-0.5l0,0c0.4,0.1,1-0.4,1.3-0.7
						c0.4-0.4,0.5-0.9,0.5-1.5c0-0.1-0.1-0.1-0.1-0.1c-0.1,0.1-0.6,0.4-0.8,0.4c0.1-0.2,0.4-0.5,0.4-0.7c0-0.1,0-0.1-0.1-0.1
						s-0.2,0.1-0.4,0.1s-0.4,0.1-0.7,0.2c0,0,0,0-0.1,0l-0.1,0.1c-0.4,0.3-0.4,0.9-0.5,1.3c-0.1,0.3-0.1,0.6,0.1,0.8v0.1
						c-0.1,0.2-0.1,0.4-0.1,0.7c0.1,0.1,0.1,0.3,0.1,0.6c0-0.1-0.1-0.1-0.1-0.2c-0.1-0.3-0.2-0.6-0.3-0.9l0,0
						c-0.1-0.2-0.1-0.5-0.1-0.7c-0.1-0.3-0.1-0.5-0.1-0.7c0.1,0,0.3-0.1,0.4-0.1c0.1-0.1,0.3-0.4,0.4-0.6c0-0.1,0-0.1,0-0.1
						c0.1-0.4,0.1-0.8,0.2-1.2c0-0.2,0-0.5,0-0.7c0-0.1-0.1-0.4-0.1-0.5c-0.1-0.1-0.1-0.3-0.2-0.4c-0.1,0.3-0.3,0.7-0.4,0.9
						c0-0.3,0.1-0.6,0.1-0.9l0,0l0,0v-0.1C11.7,17,11.6,17,11.5,17c-0.1,0.1-0.3,0.3-0.4,0.4c-0.1,0.2-0.2,0.4-0.3,0.7
						c-0.1,0.3-0.1,0.6-0.1,0.9c-0.1,0.5-0.2,1.3,0.4,1.5h0.1c0.1,1.2,0.6,4.5,3.4,6.9c1.2,1,2.4,1.8,3.5,2.4
						c-1.7-0.7-3.4-1.5-4.7-2.6c-2.1-1.6-2.2-2.8-2.5-3.6c-0.3-0.8-1.2,3.6,1.2,5.3c2.3,1.8,6.6,2.6,9,2.8c1.2,0.1,2.8,0.1,3.7,0.1
						C24.8,31.7,24.8,31.4,24.8,31.3z"></path>
				</g>
				<path class="st2a" d="M57.3,35.5c-0.1-0.4,0-1.2-0.5-1.3c-0.1,0-1.2,0.4-1.3,0.4c1.1-1.6,2.4-4.3,1.7-5c-0.7-0.6-2.6,1.2-4,2.4
					c0,0-0.1,0.2-0.4,0.4c-0.1-0.1-0.1-0.3-0.2-0.4c-0.2-0.4-0.8-0.9-1-1.2c-0.3-0.2,0.3,0.5,0.3,0.9c0,0.5-0.1,1-0.4,1.5
					c-0.1,0.2-0.2,0.4-0.3,0.7c-0.1-0.3-0.4-0.6-0.6-0.8c-0.1,0-0.1,0-0.1,0.1c0.1,0.8-0.1,1.7,0,2.5c0.1,0.4,0.2,0.6,0.5,0.8
					c0.1,0.1,0.2,0.3,0.4,0.4c0.3,0.3,0.6,0.4,0.9,0.4c0.5,0.1,0.9,0.2,1.4,0c0.5-0.1,0.7-0.2,1.2-0.2c0.1,0.1,0.9-0.1,1.3-0.2
					s-1-0.4-1.2-0.5l0,0c0.3-0.1,0.6-0.4,0.8-0.7c0.1-0.1,0.2-0.3,0.4-0.4c0.1-0.1,0.1-0.1,0.2-0.1c0.1,0,0.1,0.2,0.1,0.2
					c0.4,0.7,0.4,1,1.2,1.3C57.5,37.1,57.4,36.1,57.3,35.5z"></path>
				<path class="st2a" d="M51.5,43L51.5,43c0.1-0.4,0.1-0.9,0.1-1.3c-0.1-0.6-0.4-0.9-1-1c-0.1,0-0.3-0.1-0.4-0.1
					c-0.1,0-0.1-0.1-0.1-0.2c0-0.1,0.1-0.1,0.1-0.1s0,0,0.1,0s0.1,0,0.1-0.1s-0.1-0.1-0.1-0.1c-0.2,0-0.2-0.1-0.2-0.1s0-0.1-0.1-0.1
					c0,0,0,0.1-0.1,0.1c0,0,0,0.1-0.1,0.1s0-0.1,0-0.1c-0.1-0.1-0.1-0.3,0-0.4c0-0.1,0-0.2,0-0.3c0-0.2-0.1-0.4-0.2-0.6
					c-0.1-0.1-0.1-0.1-0.2-0.2c-0.4-0.3-0.7-0.4-1.2-0.4c-0.4,0-0.7,0-1,0l0,0c0.5,0.3,1.1,0.6,1.6,0.9l0,0h-0.1
					c-0.4-0.1-0.7-0.1-1-0.1c-0.4,0.1-0.9,0.3-1.2,0.7c-0.4,0.4-0.7,0.9-0.7,1.5c0,0.9,0.7,1.8,1.5,2.1s1.7,0.1,2.2-0.6
					c0.4-0.5,0.6-1.1,0.5-1.8c0-0.1,0-0.1,0-0.1c0.1,0.1,0.2,0.3,0.3,0.4c0.3,0.4,0.5,0.8,0.7,1.3c0.1,0.2,0.1,0.4,0.3,0.7
					c0,0,0,0.1,0.1,0.1C51.5,43.1,51.5,43.1,51.5,43z"></path>
				<path class="st2a" d="M43.7,9.2c0,0.1-1.1,1.7-1,2.6s0.2,1.8,0.4,1.8c0.1,0.1,1.9,0.4,1.7,0.1s-0.4-0.4-0.2-1.9s0.4-2,0.4-2
					s4.1-0.4,7.4,0.4c3.3,0.8,6,1.9,6.2,2s0.5-0.4,0.2-0.6c-0.3-0.1-3.4-1.8-6.7-2.3s-7-0.2-7-0.2S45,8.8,45,8.6
					c0.1-0.1-0.8-0.2-1.1-0.3C43.6,8.2,43.7,9.1,43.7,9.2z"></path>
			</g>
		</g>
	</g>
	<g>
		<g>
			<g>
				<g>
					<path class="st0a" d="M138.9,47v0.6h-1.6v1.7l0.7,0.1v0.4h-2v-0.4l0.6-0.1v-3.8l-0.6-0.1V45h1.3h2.1v1.2H139l-0.1-0.6h-1.5v1.6
						h1.6V47H138.9z"></path>
					<path class="st0a" d="M140.7,48c0,0.8,0.4,1.2,1,1.2c0.7,0,1.2-0.4,1.2-0.4l0.2,0.4c0,0-0.7,0.6-1.5,0.6c-1.1,0-1.7-0.7-1.7-1.9
						c0-1.1,0.7-2,1.7-2s1.5,0.6,1.5,1.7c0,0.1,0,0.4,0,0.4H140.7z M142.4,47.5c0-0.5-0.2-0.9-0.8-0.9s-0.9,0.4-0.9,0.9H142.4z"></path>
					<path class="st0a" d="M147.7,49.8h-1.2l-0.1-0.4c-0.2,0.2-0.6,0.4-1.1,0.4c-1,0-1.5-0.7-1.5-1.8c0-1.2,0.6-2,1.9-2
						c0.3,0,0.5,0.1,0.7,0.1v-1.2l-0.6-0.1v-0.4h1.3v4.9l0.6,0.1L147.7,49.8L147.7,49.8z M146.4,46.7c0,0-0.2-0.1-0.7-0.1
						c-0.8,0-1,0.7-1,1.4c0,0.8,0.2,1.3,0.9,1.3c0.6,0,0.9-0.5,0.9-0.5L146.4,46.7L146.4,46.7z"></path>
					<path class="st0a" d="M148.9,48c0,0.8,0.4,1.2,1,1.2c0.7,0,1.2-0.4,1.2-0.4l0.2,0.4c0,0-0.7,0.6-1.5,0.6c-1.1,0-1.7-0.7-1.7-1.9
						c0-1.1,0.7-2,1.7-2s1.5,0.6,1.5,1.7c0,0.1,0,0.4,0,0.4H148.9z M150.6,47.5c0-0.5-0.2-0.9-0.8-0.9s-0.9,0.4-0.9,0.9H150.6z"></path>
					<path class="st0a" d="M153.1,46.6c0.1-0.2,0.6-0.6,1.1-0.6c0.4,0,0.7,0.1,0.7,0.1v1h-0.4l-0.1-0.5c-0.5,0-0.9,0.4-1,0.6v2.1
						l0.7,0.1v0.4h-2v-0.4l0.6-0.1v-2.6l-0.6-0.1v-0.4h1.2L153.1,46.6z"></path>
					<path class="st0a" d="M155.4,46.3c0,0,0.8-0.3,1.4-0.3c0.8,0,1.3,0.3,1.3,1.1v2.1l0.6,0.1v0.4h-1.1l-0.1-0.5
						c-0.2,0.2-0.7,0.6-1.2,0.6c-0.7,0-1-0.4-1-1c0-0.8,0.7-1.1,1.6-1.1h0.6v-0.6c0-0.4-0.2-0.7-0.7-0.7c-0.4,0-0.7,0.1-0.7,0.1
						L156,47h-0.4L155.4,46.3z M156.8,48.2c-0.7,0-0.9,0.1-0.9,0.6c0,0.3,0.2,0.5,0.5,0.5c0.5,0,0.9-0.6,0.9-0.6v-0.5H156.8z"></path>
					<path class="st0a" d="M161.3,46.6h-1v2.3c0,0.3,0.1,0.4,0.4,0.4c0.1,0,0.4-0.1,0.6-0.1l0.2,0.4c-0.3,0.2-0.7,0.4-1,0.4
						c-0.4,0-0.8-0.2-0.8-1v-2.2H159v-0.4l0.7-0.1v-0.9l0.7-0.1v1h1L161.3,46.6L161.3,46.6z"></path>
					<path class="st0a" d="M163.7,49.8h-1.8v-0.4l0.6-0.1v-2.6l-0.6-0.1v-0.4h1.3v3.1l0.5,0.1V49.8z M162.7,44.4
						c0.3,0,0.4,0.1,0.4,0.5c0,0.3-0.2,0.5-0.4,0.5c-0.3,0-0.4-0.1-0.4-0.5C162.3,44.6,162.5,44.4,162.7,44.4z"></path>
					<path class="st0a" d="M167.6,47.9c0,1.2-0.7,2-1.7,2s-1.7-0.7-1.7-1.9s0.7-2,1.8-2C167,46,167.6,46.7,167.6,47.9z M164.9,47.9
						c0,0.9,0.3,1.4,1,1.4s1-0.5,1-1.4c0-0.8-0.2-1.3-0.9-1.3C165.3,46.6,164.9,47,164.9,47.9z"></path>
					<path class="st0a" d="M169.4,46.6c0.1-0.1,0.7-0.6,1.3-0.6c0.8,0,1.1,0.5,1.1,1.2v2l0.5,0.1v0.4h-1.7v-0.4l0.4-0.1v-1.9
						c0-0.5-0.1-0.7-0.7-0.7c-0.6,0-1,0.6-1,0.6v2l0.4,0.1v0.4H168v-0.4l0.6-0.1v-2.6l-0.6-0.1V46h1.2L169.4,46.6z"></path>
					<path class="st0a" d="M177.9,47.9c0,1.2-0.7,2-1.7,2s-1.7-0.7-1.7-1.9s0.7-2,1.8-2C177.3,46,177.9,46.7,177.9,47.9z M175.2,47.9
						c0,0.9,0.3,1.4,1,1.4s0.9-0.5,0.9-1.4c0-0.8-0.2-1.3-0.9-1.3C175.5,46.6,175.2,47,175.2,47.9z"></path>
					<path class="st0a" d="M179.1,45.7c0-0.9,0.4-1.4,1.3-1.4c0.7,0,1.1,0.2,1.1,0.2v0.9H181l-0.1-0.6c0,0-0.1,0-0.4,0
						c-0.5,0-0.7,0.3-0.7,0.7v0.6h0.9v0.5h-0.9v2.6l0.7,0.1v0.4h-2.1v-0.4l0.6-0.1v-2.6h-0.7v-0.4l0.7-0.1v-0.4H179.1z"></path>
					<path class="st0a" d="M133.8,52.5h2V53l-0.6,0.1l0.7,3.2l1.2-3.7h0.7l1.2,3.9l0.9-3.3l-0.7-0.1v-0.5h1.9V53l-0.6,0.1l-1.2,4.4
						h-0.8l-0.9-3.2l-0.2-0.7l-0.2,0.8l-0.9,3.2h-0.7l-1.2-4.4l-0.6-0.1L133.8,52.5L133.8,52.5L133.8,52.5z"></path>
					<path class="st0a" d="M141.1,52.5h2V53l-0.6,0.1l0.7,3.2l1.2-3.7h0.7l1.2,3.9l0.9-3.3l-0.7-0.1v-0.5h1.9V53l-0.6,0.1l-1.2,4.4
						h-0.8l-0.9-3.2l-0.2-0.7l-0.2,0.8l-0.9,3.2h-0.7l-1.2-4.4l-0.6-0.1L141.1,52.5L141.1,52.5L141.1,52.5z"></path>
					<path class="st0a" d="M153.1,54.9c0,1.5-0.9,2.6-2.3,2.6c-1.4,0-2.1-0.9-2.1-2.5c0-1.5,0.9-2.6,2.2-2.6
						C152.3,52.4,153.1,53.3,153.1,54.9z M149.4,54.9c0,1.2,0.4,2,1.4,2s1.5-0.7,1.5-2c0-1.2-0.5-1.9-1.4-1.9
						C149.9,53,149.4,53.6,149.4,54.9z"></path>
					<path class="st0a" d="M158.4,54.9c0,1.5-0.9,2.6-2.3,2.6c-1.4,0-2.1-0.9-2.1-2.5c0-1.5,0.9-2.6,2.2-2.6
						C157.6,52.4,158.4,53.3,158.4,54.9z M154.7,54.9c0,1.2,0.4,2,1.4,2c0.9,0,1.5-0.7,1.5-2c0-1.2-0.5-1.9-1.4-1.9
						C155.2,53,154.7,53.6,154.7,54.9z"></path>
					<path class="st0a" d="M162,54.6v0.6h-1.6v1.7l0.7,0.1v0.4h-2V57l0.6-0.1v-3.8l-0.6-0.1v-0.4h1.3h2.1v1.2h-0.4l-0.1-0.6h-1.5v1.6
						L162,54.6L162,54.6z"></path>
					<path class="st0a" d="M135.6,61.1c0,1.5-0.9,2.6-2.3,2.6s-2.1-0.9-2.1-2.5c0-1.5,0.9-2.6,2.2-2.6
						C134.7,58.7,135.6,59.6,135.6,61.1z M131.9,61.2c0,1.2,0.4,2,1.4,2c0.9,0,1.5-0.7,1.5-2c0-1.2-0.5-1.9-1.4-1.9
						C132.4,59.3,131.9,59.9,131.9,61.2z"></path>
					<path class="st0a" d="M137.5,60.5c0.1-0.2,0.6-0.6,1.1-0.6c0.4,0,0.7,0.1,0.7,0.1v1h-0.6l-0.1-0.5c-0.5,0-0.9,0.4-1,0.6v2.1
						l0.7,0.1v0.4h-2v-0.4l0.6-0.1v-2.6l-0.6-0.1V60h1.2L137.5,60.5z"></path>
					<path class="st0a" d="M142.5,60.5c0,0,0.2,0.2,0.2,0.7c0,0.9-0.7,1.4-1.5,1.4c-0.3,0-0.5-0.1-0.5-0.1v0.7h1.1
						c0.9,0,1.4,0.4,1.4,1c0,0.8-0.6,1.2-1.8,1.2c-1,0-1.7-0.2-1.7-1c0-0.7,0.7-0.9,0.7-0.9s-0.4,0-0.4-0.4c0-0.2,0.4-0.8,0.4-0.8
						s-0.5-0.2-0.5-1.1c0-0.9,0.7-1.4,1.5-1.4c0.4,0,0.7,0.1,0.7,0.1h1.2v0.4L142.5,60.5z M140.6,63.7c0,0-0.4,0.2-0.4,0.7
						s0.4,0.6,1.1,0.6c0.7,0,1.1-0.2,1.1-0.7s-0.4-0.6-0.9-0.6C141.5,63.7,140.6,63.7,140.6,63.7z M140.4,61.2
						c0,0.5,0.2,0.9,0.8,0.9s0.8-0.2,0.8-0.9c0-0.5-0.2-0.9-0.8-0.9C140.6,60.4,140.4,60.6,140.4,61.2z"></path>
					<path class="st0a" d="M143.8,60.2c0,0,0.8-0.3,1.4-0.3c0.8,0,1.3,0.3,1.3,1.1v2.1l0.6,0.1v0.4H146l-0.1-0.5
						c-0.2,0.2-0.7,0.6-1.2,0.6c-0.7,0-1-0.4-1-1c0-0.8,0.7-1.1,1.6-1.1h0.6V61c0-0.4-0.2-0.7-0.7-0.7c-0.4,0-0.7,0.1-0.7,0.1
						l-0.1,0.5H144L143.8,60.2z M145.3,62.1c-0.7,0-0.9,0.1-0.9,0.6c0,0.3,0.2,0.5,0.5,0.5c0.5,0,0.9-0.6,0.9-0.6V62L145.3,62.1
						L145.3,62.1z"></path>
					<path class="st0a" d="M148.8,60.5c0.1-0.1,0.7-0.6,1.3-0.6c0.8,0,1.1,0.5,1.1,1.2v2l0.5,0.1v0.4H150v-0.4l0.4-0.1v-1.9
						c0-0.5-0.1-0.7-0.7-0.7c-0.6,0-1,0.6-1,0.6v2l0.4,0.1v0.4h-1.7v-0.4l0.6-0.1v-2.6l-0.6-0.1V60h1.2L148.8,60.5z"></path>
					<path class="st0a" d="M154,63.7h-1.8v-0.4l0.6-0.1v-2.6l-0.6-0.1V60h1.3v3.1l0.5,0.1V63.7z M153.1,58.3c0.3,0,0.4,0.1,0.4,0.5
						c0,0.3-0.2,0.5-0.4,0.5c-0.3,0-0.4-0.1-0.4-0.5C152.7,58.5,152.9,58.3,153.1,58.3z"></path>
					<path class="st0a" d="M155.2,63.2c0,0,0.2,0.1,0.6,0.1c0.4,0,0.8-0.1,0.8-0.6c0-0.7-2-0.4-2-1.7c0-0.7,0.6-1.1,1.3-1.1
						c0.6,0,1.2,0.2,1.2,0.2V61h-0.4l-0.1-0.6c0,0-0.2-0.1-0.6-0.1c-0.4,0-0.7,0.1-0.7,0.4c0,0.7,2,0.4,2,1.7c0,0.8-0.7,1.2-1.5,1.2
						c-0.7,0-1.1-0.1-1.1-0.1v-1h0.5V63.2z"></path>
					<path class="st0a" d="M158.1,60.2c0,0,0.8-0.3,1.4-0.3c0.8,0,1.3,0.3,1.3,1.1v2.1l0.6,0.1v0.4h-1.1l-0.1-0.5
						c-0.2,0.2-0.7,0.6-1.2,0.6c-0.7,0-1-0.4-1-1c0-0.8,0.7-1.1,1.6-1.1h0.6V61c0-0.4-0.2-0.7-0.7-0.7s-0.7,0.1-0.7,0.1l-0.1,0.5
						h-0.4L158.1,60.2z M159.6,62.1c-0.7,0-0.9,0.1-0.9,0.6c0,0.3,0.2,0.5,0.5,0.5c0.5,0,0.9-0.6,0.9-0.6V62L159.6,62.1L159.6,62.1z
						"></path>
					<path class="st0a" d="M164.1,60.6h-1v2.3c0,0.3,0.1,0.4,0.4,0.4c0.1,0,0.4-0.1,0.6-0.1l0.2,0.4c-0.3,0.2-0.7,0.4-0.9,0.4
						c-0.4,0-0.8-0.2-0.8-1v-2.2h-0.7v-0.4l0.7-0.1v-1l0.7-0.1v1h1v0.6h-0.2V60.6z"></path>
					<path class="st0a" d="M166.4,63.7h-1.8v-0.4l0.6-0.1v-2.6l-0.6-0.1V60h1.3v3.1l0.5,0.1V63.7z M165.5,58.3c0.3,0,0.4,0.1,0.4,0.5
						c0,0.3-0.2,0.5-0.4,0.5c-0.3,0-0.4-0.1-0.4-0.5C165,58.5,165.3,58.3,165.5,58.3z"></path>
					<path class="st0a" d="M170.3,61.7c0,1.2-0.7,2-1.7,2s-1.7-0.7-1.7-1.9s0.7-2,1.8-2C169.8,59.9,170.3,60.6,170.3,61.7z
						 M167.6,61.8c0,0.9,0.3,1.4,1,1.4s1-0.5,1-1.4c0-0.8-0.2-1.3-0.9-1.3C168,60.5,167.6,60.9,167.6,61.8z"></path>
					<path class="st0a" d="M172.1,60.5c0.1-0.1,0.7-0.6,1.3-0.6c0.8,0,1.1,0.5,1.1,1.2v2l0.5,0.1v0.4h-1.7v-0.4l0.4-0.1v-1.9
						c0-0.5-0.1-0.7-0.7-0.7c-0.6,0-1,0.6-1,0.6v2l0.4,0.1v0.4h-1.7v-0.4l0.6-0.1v-2.6l-0.6-0.1V60h1.2L172.1,60.5z"></path>
					<path class="st0a" d="M176.2,63.2c0,0,0.2,0.1,0.6,0.1c0.4,0,0.8-0.1,0.8-0.6c0-0.7-2-0.4-2-1.7c0-0.7,0.6-1.1,1.3-1.1
						c0.6,0,1.2,0.2,1.2,0.2V61h-0.4l-0.1-0.6c0,0-0.2-0.1-0.6-0.1s-0.7,0.1-0.7,0.4c0,0.7,2,0.4,2,1.7c0,0.8-0.7,1.2-1.5,1.2
						c-0.7,0-1.1-0.1-1.1-0.1v-1h0.5V63.2z"></path>
				</g>
				<g>
					<path class="st1a" d="M93.1,51.9c-0.7,0-1.3,0.3-1.6,0.9c-0.4,0.6-0.5,1.3-0.5,2.3c0,1.8,0.4,3,1,3.4c0.3,0.2,0.7,0.3,1.1,0.3
						c1.4,0,2.1-1.2,2.1-3.4c0-1.2-0.1-2-0.5-2.6C94.4,52.2,93.9,51.9,93.1,51.9z"></path>
					<path class="st1a" d="M121.1,49.5c-0.4-0.3-1-0.4-1.7-0.4s-1.3,0.2-1.8,0.7c-0.5,0.4-0.9,1-1,1.7c-0.2,0.7-0.3,1.4-0.3,2.2
						c0,3.2,1.1,4.8,3.3,4.8c1.2,0,2-0.5,2.5-1.5c0.4-0.9,0.7-1.9,0.7-3.1c0-1.1-0.2-2.1-0.6-3.1C121.9,50.2,121.6,49.8,121.1,49.5z
						"></path>
					<path class="st1a" d="M76.6,42.3l-4.8,22.9h53.6l7.5-22.9C132.9,42.3,76.6,42.3,76.6,42.3z M88.4,50.6l-2,0.1v-0.8
						c0-0.2,0-0.4-0.1-0.4c-0.1-0.1-0.2-0.1-0.4-0.1h-3.3v3.4h4.7v2h-4.7v3.8l1.7,0.1v1.7h-5.2v-1.5l0.7-0.1
						c0.4-0.1,0.6-0.2,0.6-0.5V49h-1.1v-1.7h9.3v3.3H88.4z M96.2,59.1c-0.9,0.9-2,1.4-3.3,1.4s-2.4-0.4-3.1-1.3
						c-0.7-0.9-1.2-2.2-1.2-3.9c0-0.9,0.1-1.8,0.4-2.5s0.7-1.2,1.2-1.6c0.9-0.7,1.9-1,3-1c0.8,0,1.5,0.1,2,0.4s0.9,0.5,1.2,0.9
						c0.3,0.4,0.6,0.8,0.8,1.5c0.2,0.7,0.3,1.4,0.3,2.2C97.5,56.8,97.1,58.2,96.2,59.1z M113.7,48.9L113,49c-0.4,0-0.6,0.3-0.7,0.7
						L110,60.2h-2.6l-2-8.6h-0.1l-2,8.6h-2.7L98,49h-1.1v-1.7h4.8v1.6L101,49c-0.4,0.1-0.6,0.2-0.6,0.5c0,0.1,0,0.1,0,0.1l1.7,7.4
						h0.1l2-8.8h2.5l2.1,8.8h0.1l1.7-8.1l-1-0.1v-1.7h4.4v1.7L113.7,48.9L113.7,48.9z M123.5,58.7c-1,1.2-2.4,1.7-4.1,1.7
						s-3.1-0.6-4.1-1.7c-1-1.2-1.5-2.8-1.5-5c0-1.2,0.1-2.3,0.5-3.1c0.4-0.9,0.8-1.6,1.4-2c1.2-1,2.5-1.5,4-1.5s2.8,0.5,3.8,1.6
						s1.5,2.7,1.5,5C125,55.9,124.5,57.6,123.5,58.7z"></path>
				</g>
			</g>
		</g>
		<g>
			<g>
				<path class="st3a" d="M190,18v-6.5h-18.7v3.3l2.2,0.1v18.2c0,0.7-0.4,1-1.2,1.1l-1.3,0.1v3.1h10.6v-3.3l-3.5-0.1v-7.7h9.6v-4
					h-9.6v-6.9h6.7c0.5,0,0.8,0.1,0.9,0.3c0.1,0.2,0.2,0.5,0.2,0.9v1.5L190,18z"></path>
			</g>
			<g>
				<path class="st3a" d="M163.6,12.3c-2-1.1-4.6-1.5-7.4-1.2c-2.6,0.3-4.4,1.4-6,2.8c-2.3,2.3-3.3,5.4-3.5,9.7
					c-0.1,4.2-0.8,8.1-3.6,9.6c-0.9,0.5-2.4,0.8-3.7,0.7c-1.2-0.1-2.2-0.7-3-1.4c-1.6-1.5-2.4-3.5-2.6-6.2c-0.2-2.8,0-5.4,0.9-7.7
					c0.8-2.1,2.5-3.5,5.2-3.6c2.8-0.1,4.4,1.3,5.4,2.8c0.1,0.1,0.1,0.4,0.2,0.2c0.5-1.7,1.2-3.1,2.1-4.4c-2.2-1.7-4.6-3-8.6-2.8
					c-2.4,0.1-4.4,1-5.9,2.3c-3,2.5-4.4,6.5-4.1,12c0.2,7.8,3.9,12.7,11.6,12.7c2.6,0,4.6-0.7,6.2-1.8c2.8-2,4.4-5.1,4.6-9.5
					c0.1-0.6,0-1.2,0.1-2c0-0.3,0.1-0.6,0.1-0.9c0.1-1,0.1-1.9,0.3-2.8c0.7-3.4,2.2-6,6.1-6.1c2.6-0.1,4.1,1.3,5.2,2.9
					c2,3.3,1.7,10.1-0.1,13.3c-1,1.8-2.8,2.8-5.4,2.6c-2.3-0.1-3.7-1.5-4.6-2.9c-0.1-0.1-0.1-0.3-0.2-0.2c-0.5,1.8-1.2,3.2-2.2,4.5
					c1.5,1.4,3.6,2.3,6.2,2.6c3,0.3,5.4-0.3,7.3-1.4c3.8-2.3,5.3-6.2,5.3-12.3C169.4,18.4,167.3,14.4,163.6,12.3z"></path>
			</g>
			<g>
				<path class="st3a" d="M129.3,11.7h-8.7V15l2.1,0.1l-3.3,16.3h-0.1l-3.8-19.6h0.1h-5.7l-3.7,19.6l-2.8-11.7l-2.8,9.6l2.3,8.2h0.4
					h5h0.3l4-18.2l3.8,18.2h5.3l4.9-21.2c0.1-0.9,0.6-1.3,1.3-1.4l1.3-0.1L129.3,11.7L129.3,11.7z"></path>
			</g>
			<g>
				<path class="st3a" d="M104.8,15v-3.3h-9.6V15H97l-3.8,16.2l-3.7-19.6h-5.7h0.1L80,31.4h-0.1l-3.3-16.2l2.1-0.1v-3.4H70v3.1
					l1.3,0.1c0.7,0.1,1.1,0.5,1.3,1.4l4.9,21.2h5.3l3.8-18.2l4,18.2h0.3h5h0.4l6.3-22.4L104.8,15z"></path>
			</g>
		</g>
	</g>
</g>
</svg>
